<?xml version="1.0" encoding="UTF-8"?>
<svg id="Layer_1" xmlns="http://www.w3.org/2000/svg" version="1.1" viewBox="0 0 32 32">
  <!-- Generator: Adobe Illustrator 29.5.1, SVG Export Plug-In . SVG Version: 2.1.0 Build 141)  -->
  <path d="M29.9,12.2c-.3-.8-1-1.3-1.8-1.4l-7.4-.6-2.8-6.9c-.4-1-1.6-1.5-2.7-1.1-.5.2-.9.6-1.1,1.1l-2.8,6.9-7.4.6c-1.1,0-2,1.1-1.9,2.2,0,.5.3,1,.7,1.4l5.6,4.9-1.7,7.3c-.3,1.1.4,2.2,1.5,2.5.5.1,1.1,0,1.6-.2l6.3-3.9,6.3,3.9c1,.6,2.2.3,2.8-.7.3-.5.4-1,.2-1.5l-1.7-7.3,5.6-4.9c.6-.5.9-1.4.6-2.2ZM28,12.8l-6.1,5.3c-.3.2-.4.6-.3,1l1.9,7.9s0,0,0,0c0,0,0,0,0,0l-6.8-4.2c-.3-.2-.7-.2-1,0l-6.8,4.2s0,0,0,0c0,0,0,0,0,0l1.9-7.9c0-.4,0-.7-.3-1l-6.1-5.2s0,0,0,0,0,0,0,0l8-.6c.4,0,.7-.3.8-.6l3.1-7.5s0,0,0,0,0,0,0,0l3.1,7.5c.1.3.5.6.8.6l8,.6s0,0,0,0,0,0,0,0Z"/>
</svg>