<?xml version="1.0" encoding="UTF-8"?>
<svg id="Layer_1" xmlns="http://www.w3.org/2000/svg" version="1.1" viewBox="0 0 32 32">
  <!-- Generator: Adobe Illustrator 29.5.1, SVG Export Plug-In . SVG Version: 2.1.0 Build 141)  -->
  <path d="M29.9,12.2c-.3-.8-1-1.3-1.8-1.4l-7.4-.6-2.8-6.9c-.4-1-1.6-1.5-2.7-1.1-.5.2-.9.6-1.1,1.1l-2.8,6.9-7.4.6c-1.1,0-2,1.1-1.9,2.2,0,.5.3,1,.7,1.4l5.6,4.9-1.7,7.3c-.3,1.1.4,2.2,1.5,2.5.5.1,1.1,0,1.6-.2l6.3-3.9,6.3,3.9c1,.6,2.2.3,2.8-.7.3-.5.4-1,.2-1.5l-1.7-7.3,5.6-4.9c.6-.5.9-1.4.6-2.2Z"/>
</svg>